:SAMPLES-PER-SECOND 30
:FULLY-SPECIFIED
:DEGREES
1
root  72.0318 40.5061 -3.15021 -171.19 -87.8643 170.853
RightUpLeg  1.99356 -8.30723 -6.92083
RightLeg  2.33076 -0.577858 2.98474
RightFoot  -2.20771 -0.111353 1.0723
RightToes  1.74622e-010 0 -3.6325e-017
Spine  -1.63238 -0.753459 0.477863
Spine1  7.14951 -0.729745 -0.322848
HEad  -4.502 4.15254 -0.740493
LeftShoulder1  0.811762 -1.00254 -10.6539
LeftArm  -15.602 6.03868 2.15873
LeftForeArm  7.08498 -0.49889 -2.73136
LeftHand  -0.244104 0.0205437 5.32207
RightShoulder  0.591307 0.547544 6.99475
RightArm  -21.539 2.40833 -0.50437
RightForeArm  -0.708575 1.9219 3.40239
RightHand  -0.580292 0.305555 -11.8938
LeftUpLeg  2.68974 5.71061 4.70847
LeftLeg  1.21833 9.06568 -3.48455
LeftFoot  -2.74573 0.1119 -1.35258
LeftToes  1.00041e-010 1.90862e-010 2.54823e-011
2
root  72.0318 40.5061 -3.14804 -170.765 -87.8447 170.447
RightUpLeg  1.9713 -8.31551 -6.94292
RightLeg  2.32315 -0.5493 2.9838
RightFoot  -2.18953 -0.11715 1.16226
RightToes  1.74622e-010 0 -3.6325e-017
Spine  -1.82426 -0.781928 0.525729
Spine1  7.40712 -0.729848 -0.452463
HEad  -5.03951 4.28901 -0.888757
LeftShoulder1  0.801292 -0.956794 -10.5969
LeftArm  -15.6921 6.02349 2.13611
LeftForeArm  7.09081 -0.508228 -2.69765
LeftHand  -0.244104 0.0205437 5.32207
RightShoulder  0.602511 0.604033 7.07602
RightArm  -21.5736 2.46694 -0.535431
RightForeArm  -0.571614 1.8494 3.38498
RightHand  -0.613384 0.630757 -11.9138
LeftUpLeg  2.65215 5.70447 4.68207
LeftLeg  1.26279 9.09656 -3.48853
LeftFoot  -2.74108 0.111347 -1.34398
LeftToes  1.00041e-010 1.90862e-010 2.54823e-011
3
root  72.0318 40.5061 -3.14356 -170.345 -87.8327 170.038
RightUpLeg  1.96574 -8.33407 -6.97236
RightLeg  2.31303 -0.52041 2.99137
RightFoot  -2.18094 -0.118084 1.17675
RightToes  1.74622e-010 0 -3.6325e-017
Spine  -1.92718 -0.788353 0.518488
Spine1  7.54873 -0.725586 -0.500162
HEad  -5.64611 4.41728 -1.09241
LeftShoulder1  0.790888 -0.91418 -10.5267
LeftArm  -15.7739 5.98938 2.0679
LeftForeArm  7.11239 -0.543729 -2.67472
LeftHand  -0.244104 0.0205437 5.32207
RightShoulder  0.611855 0.638267 7.19336
RightArm  -21.4881 2.48628 -0.645343
RightForeArm  -0.642989 1.8198 3.41536
RightHand  -0.641123 0.850643 -12.0267
LeftUpLeg  2.63783 5.69407 4.65146
LeftLeg  1.28088 9.12514 -3.49219
LeftFoot  -2.72721 0.110768 -1.33497
LeftToes  1.00041e-010 1.90862e-010 2.54823e-011
4
root  72.0318 40.5061 -3.13847 -170.272 -87.8479 169.955
RightUpLeg  1.98102 -8.34742 -6.98485
RightLeg  2.31437 -0.532813 2.99936
RightFoot  -2.19157 -0.111649 1.0769
RightToes  1.74622e-010 0 -3.6325e-017
Spine  -1.89649 -0.772994 0.519447
Spine1  7.52121 -0.702971 -0.523627
HEad  -5.96543 4.40616 -1.19637
LeftShoulder1  0.799375 -0.980865 -10.4449
LeftArm  -15.7881 6.00295 2.016
LeftForeArm  7.17363 -0.563146 -2.66735
LeftHand  -0.244104 0.0205437 5.32207
RightShoulder  0.616246 0.629557 7.34741
RightArm  -21.3718 2.46107 -0.801217
RightForeArm  -1.07249 1.83882 3.4696
RightHand  -0.626498 0.595978 -12.2352
LeftUpLeg  2.65712 5.68455 4.63885
LeftLeg  1.25656 9.12665 -3.49284
LeftFoot  -2.70688 0.110662 -1.33333
LeftToes  1.00041e-010 1.90862e-010 2.54823e-011
5
root  72.0318 40.5061 -3.13377 -170.166 -87.8533 169.837
RightUpLeg  1.98337 -8.35117 -6.996
RightLeg  2.32964 -0.546673 2.99467
RightFoot  -2.19575 -0.110006 1.05139
RightToes  1.74622e-010 0 -3.6325e-017
Spine  -1.85516 -0.762838 0.564938
Spine1  7.47258 -0.67143 -0.611138
HEad  -5.88515 4.30015 -1.16703
LeftShoulder1  0.82246 -1.12629 -10.3829
LeftArm  -15.7718 6.08384 2.04154
LeftForeArm  7.22941 -0.550474 -2.65514
LeftHand  -0.244104 0.0205437 5.32207
RightShoulder  0.616181 0.59825 7.47279
RightArm  -21.4452 2.48263 -0.863029
RightForeArm  -1.39728 1.77472 3.45081
RightHand  -0.597763 0.227218 -12.4102
LeftUpLeg  2.67056 5.67562 4.62621
LeftLeg  1.24302 9.13115 -3.49417
LeftFoot  -2.69421 0.110944 -1.33771
LeftToes  1.00041e-010 1.90862e-010 2.54823e-011
6
root  72.0318 40.5061 -3.12943 -169.735 -87.8373 169.397
RightUpLeg  1.983 -8.35704 -7.0264
RightLeg  2.33757 -0.508973 2.98771
RightFoot  -2.18352 -0.118862 1.18883
RightToes  1.74622e-010 0 -3.6325e-017
Spine  -1.84757 -0.770549 0.594444
Spine1  7.4678 -0.661191 -0.691284
HEad  -5.88089 4.25857 -1.15863
LeftShoulder1  0.829694 -1.17365 -10.3569
LeftArm  -15.7911 6.10581 2.0501
LeftForeArm  7.23061 -0.510424 -2.638
LeftHand  -0.244104 0.0205437 5.32207
RightShoulder  0.618647 0.605066 7.51222
RightArm  -21.7045 2.52942 -0.830992
RightForeArm  -1.13884 1.60036 3.33145
RightHand  -0.589423 0.159678 -12.3829
LeftUpLeg  2.67628 5.66727 4.6017
LeftLeg  1.25829 9.14129 -3.49581
LeftFoot  -2.70334 0.111192 -1.34157
LeftToes  1.00041e-010 1.90862e-010 2.54823e-011
7
root  72.0322 40.5061 -3.12469 -169.338 -87.841 168.978
RightUpLeg  2.0133 -8.37017 -7.06072
RightLeg  2.32023 -0.449889 2.98995
RightFoot  -2.17306 -0.129325 1.35118
RightToes  1.74622e-010 0 -3.6325e-017
Spine  -1.84609 -0.793359 0.602873
Spine1  7.50193 -0.678627 -0.723221
HEad  -5.85575 4.27503 -1.09283
LeftShoulder1  0.815734 -1.09789 -10.3416
LeftArm  -15.8348 6.02803 1.97028
LeftForeArm  7.19336 -0.463706 -2.63097
LeftHand  -0.244104 0.0205437 5.32207
RightShoulder  0.630308 0.678856 7.52733
RightArm  -21.949 2.5149 -0.848867
RightForeArm  -0.460597 1.42672 3.18544
RightHand  -0.592373 0.280739 -12.1892
LeftUpLeg  2.68712 5.66475 4.58434
LeftLeg  1.28477 9.12275 -3.49261
LeftFoot  -2.73179 0.111012 -1.33877
LeftToes  1.00041e-010 1.90862e-010 2.54823e-011
8
root  72.0342 40.5061 -3.11856 -169.434 -87.8532 169.054
RightUpLeg  2.04278 -8.38223 -7.0748
RightLeg  2.30721 -0.415632 2.99997
RightFoot  -2.18075 -0.131543 1.3856
RightToes  1.74622e-010 0 -3.6325e-017
Spine  -1.81298 -0.805706 0.64737
Spine1  7.5233 -0.684216 -0.761292
HEad  -5.79824 4.33939 -0.980359
LeftShoulder1  0.815525 -1.09339 -10.3554
LeftArm  -15.8264 6.03153 1.92079
LeftForeArm  7.15039 -0.483119 -2.63969
LeftHand  -0.244104 0.0205437 5.32207
RightShoulder  0.638256 0.721953 7.56628
RightArm  -22.0504 2.48028 -0.904286
RightForeArm  0.0139711 1.33782 3.10453
RightHand  -0.593882 0.353842 -12.0709
LeftUpLeg  2.68699 5.67267 4.58458
LeftLeg  1.31754 9.10704 -3.48784
LeftFoot  -2.76236 0.109665 -1.31784
LeftToes  1.00041e-010 1.90862e-010 2.54823e-011
9
root  72.0377 40.5065 -3.11113 -169.877 -87.7959 169.496
RightUpLeg  2.00963 -8.39191 -7.07948
RightLeg  2.34845 -0.37281 3.00465
RightFoot  -2.19786 -0.125495 1.29174
RightToes  1.74622e-010 0 -3.6325e-017
Spine  -1.75295 -0.778131 0.717987
Spine1  7.50928 -0.644988 -0.811701
HEad  -5.81474 4.38631 -0.938963
LeftShoulder1  0.838422 -1.20239 -10.443
LeftArm  -15.7963 6.17842 1.95312
LeftForeArm  7.15551 -0.606055 -2.64301
LeftHand  -0.244104 0.0205437 5.32207
RightShoulder  0.630026 0.661985 7.5882
RightArm  -22.0158 2.4973 -0.865079
RightForeArm  -0.0355587 1.36594 3.12746
RightHand  -0.605429 0.460944 -12.088
LeftUpLeg  2.67175 5.67773 4.57921
LeftLeg  1.35049 9.17745 -3.48911
LeftFoot  -2.78303 0.107979 -1.29163
LeftToes  1.00041e-010 1.90862e-010 2.54823e-011
10
root  72.0413 40.5067 -3.10397 -170.078 -87.6895 169.704
RightUpLeg  1.93981 -8.40715 -7.09757
RightLeg  2.42879 -0.296643 3.00349
RightFoot  -2.21324 -0.117994 1.17535
RightToes  1.74622e-010 0 -3.6325e-017
Spine  -1.73978 -0.734537 0.761248
Spine1  7.56251 -0.593607 -0.837424
HEad  -5.98373 4.36347 -1.01099
LeftShoulder1  0.852333 -1.24353 -10.5982
LeftArm  -15.8594 6.24677 1.9296
LeftForeArm  7.32034 -0.728704 -2.61638
LeftHand  -0.244104 0.0205437 5.32207
RightShoulder  0.628614 0.641962 7.63153
RightArm  -21.9302 2.45008 -0.807724
RightForeArm  -0.343522 1.56582 3.20998
RightHand  -0.614519 0.594763 -12.0039
LeftUpLeg  2.66469 5.67024 4.55203
LeftLeg  1.36983 9.30333 -3.48918
LeftFoot  -2.80022 0.108499 -1.29971
LeftToes  1.00041e-010 1.90862e-010 2.54823e-011
11
root  72.0449 40.5054 -3.09814 -169.883 -87.6619 169.5
RightUpLeg  1.91905 -8.42319 -7.1229
RightLeg  2.47022 -0.255145 3.00311
RightFoot  -2.23027 -0.11816 1.17793
RightToes  1.74622e-010 0 -3.6325e-017
Spine  -1.80786 -0.73555 0.792896
Spine1  7.74708 -0.584959 -0.876414
HEad  -6.17279 4.33394 -1.0804
LeftShoulder1  0.862522 -1.24274 -10.8372
LeftArm  -15.9794 6.19769 1.87216
LeftForeArm  7.69072 -0.815199 -2.57293
LeftHand  -0.244104 0.0205437 5.32207
RightShoulder  0.659401 0.79591 7.82506
RightArm  -22.0421 2.20646 -0.839942
RightForeArm  -0.572138 1.94169 3.22784
RightHand  -0.594317 0.481585 -11.8308
LeftUpLeg  2.65755 5.64337 4.52027
LeftLeg  1.39746 9.35477 -3.46805
LeftFoot  -2.82978 0.111389 -1.34463
LeftToes  1.00041e-010 1.90862e-010 2.54823e-011
